<svg width="100" height="13" viewBox="0 0 100 13" fill="none" xmlns="http://www.w3.org/2000/svg">
<g clip-path="url(#clip0_102_129)">
<path d="M3.63118 6.07916C3.5948 6.03156 3.54677 5.99417 3.49172 5.97057C3.43666 5.94695 3.37645 5.93796 3.31688 5.94441C3.25733 5.95089 3.20047 5.97261 3.15176 6.00749C3.10305 6.04237 3.06418 6.08922 3.03887 6.14351L0.0375595 12.1443C0.010218 12.199 -0.00269118 12.2597 5.75627e-05 12.3208C0.00280632 12.3819 0.0211218 12.4413 0.0532652 12.4933C0.0854083 12.5453 0.130313 12.5882 0.183714 12.618C0.237115 12.6478 0.297242 12.6634 0.358385 12.6634H4.53756C4.6045 12.665 4.67045 12.6471 4.72739 12.6118C4.78435 12.5766 4.82985 12.5257 4.85838 12.4651C5.75988 10.6022 5.21354 7.76978 3.63118 6.07916Z" fill="url(#paint0_linear_102_129)"/>
<path d="M5.83249 0.621216C5.08465 1.7719 4.64883 3.09726 4.56782 4.46722C4.48681 5.83718 4.76338 7.20467 5.37039 8.43548L7.38521 12.4651C7.41501 12.5247 7.4608 12.5748 7.51746 12.6098C7.57413 12.6449 7.63942 12.6634 7.70604 12.6634H11.8845C11.9456 12.6634 12.0057 12.6478 12.0591 12.618C12.1125 12.5882 12.1574 12.5453 12.1896 12.4933C12.2217 12.4413 12.24 12.3819 12.2428 12.3208C12.2455 12.2598 12.2326 12.199 12.2053 12.1443C12.2053 12.1443 6.5839 0.900203 6.44262 0.618965C6.41469 0.561718 6.3712 0.513504 6.31711 0.479853C6.26302 0.446203 6.20056 0.428478 6.13685 0.428713C6.07315 0.428948 6.01082 0.447133 5.95698 0.481182C5.90315 0.515231 5.86 0.563765 5.83249 0.621216Z" fill="#2D2D2D"/>
<path d="M54.8431 5.43285C54.8431 6.91878 55.5325 8.09852 58.2287 8.61935C59.8373 8.95706 60.1743 9.21672 60.1743 9.75293C60.1743 10.2738 59.8366 10.6109 58.7036 10.6109C57.3341 10.5863 55.9921 10.2232 54.7972 9.55387V11.9741C55.6092 12.3724 56.6814 12.8167 58.673 12.8167C61.4917 12.8167 62.6101 11.5597 62.6101 9.69158L54.8431 5.43285ZM62.6101 9.69158C62.6101 7.92985 61.6756 7.10246 59.0407 6.53586C57.5854 6.21409 57.233 5.89252 57.233 5.43285C57.233 4.85124 57.7538 4.60565 58.7189 4.60565C59.8833 4.60565 61.0323 4.958 62.1199 5.44824V3.13492C61.0769 2.66025 59.9411 2.42473 58.7955 2.44561C56.1912 2.44561 54.8431 3.5792 54.8431 5.43285" fill="#2D2D2D"/>
<path d="M91.0567 2.59863V12.6635H93.2014V4.9885L94.1053 7.02584L97.1385 12.6635H99.8348V2.59863H97.6901V9.09413L96.8781 7.2097L94.4423 2.59863H91.0567Z" fill="#2D2D2D"/>
<path d="M77.4158 2.59863H75.0719V12.6635H77.4158V2.59863Z" fill="#2D2D2D"/>
<path d="M72.3674 9.69158C72.3674 7.92985 71.4329 7.10246 68.798 6.53586C67.3426 6.21409 66.9903 5.89252 66.9903 5.43285C66.9903 4.85124 67.5111 4.60565 68.4762 4.60565C69.6406 4.60565 70.7895 4.958 71.8771 5.44824V3.13492C70.8344 2.66025 69.6985 2.42473 68.5528 2.44561C65.9484 2.44561 64.6004 3.5792 64.6004 5.43285C64.6004 6.91878 65.2897 8.09852 67.986 8.61935C69.5946 8.95706 69.9315 9.21672 69.9315 9.75293C69.9315 10.2738 69.5938 10.6109 68.4608 10.6109C67.0914 10.5863 65.7494 10.2232 64.5544 9.55387V11.9741C65.3665 12.3724 66.4387 12.8167 68.4302 12.8167C71.249 12.8167 72.3674 11.5597 72.3674 9.69158Z" fill="#2D2D2D"/>
<path d="M36.6351 2.59863V12.6635H41.4528L42.2113 10.4881H38.9942V2.59863H36.6351Z" fill="#2D2D2D"/>
<path d="M27.1169 2.59863V4.77387H29.7212V12.6635H32.0803V4.77387H34.8685V2.59863H27.1169Z" fill="#2D2D2D"/>
<path d="M23.6961 2.59863H20.6044L17.0946 12.6635H19.7749L20.2725 10.9684C21.4978 11.3282 22.801 11.3282 24.0263 10.9684L24.5239 12.6635H27.2047L23.6961 2.59863ZM22.1501 9.15342C21.7136 9.1534 21.2792 9.0909 20.8603 8.96786L22.1501 4.57556L23.44 8.96936C23.0211 9.0919 22.5867 9.15389 22.1501 9.15342Z" fill="#2D2D2D"/>
<path d="M49.7582 2.59863H46.6666L43.1569 12.6635H45.8377L46.3353 10.9684C47.5608 11.3282 48.8638 11.3282 50.0891 10.9684L50.5867 12.6635H53.2676L49.7582 2.59863ZM48.2124 9.15342C47.7758 9.1534 47.3415 9.0909 46.9225 8.96786L48.2124 4.57556L49.5023 8.96936C49.0833 9.0919 48.649 9.15389 48.2124 9.15342Z" fill="#2D2D2D"/>
<path d="M85.8619 2.59863H82.7704L79.2606 12.6635H81.9415L82.439 10.9684C83.6644 11.3282 84.9676 11.3282 86.1929 10.9684L86.6904 12.6635H89.3715L85.8619 2.59863ZM84.3152 9.15342C83.8786 9.1534 83.4443 9.0909 83.0253 8.96786L84.3152 4.57556L85.6051 8.96936C85.1861 9.0919 84.7518 9.15389 84.3152 9.15342Z" fill="#2D2D2D"/>
</g>
<defs>
<linearGradient id="paint0_linear_102_129" x1="5.27602" y1="7.00524" x2="2.10866" y2="12.4914" gradientUnits="userSpaceOnUse">
<stop offset="0.923" stop-color="#2D2D2D"/>
</linearGradient>
<clipPath id="clip0_102_129">
<rect width="100" height="12.5704" fill="white" transform="translate(0 0.429199)"/>
</clipPath>
</defs>
</svg>
