<svg width="37" height="18" viewBox="0 0 37 18" fill="none" xmlns="http://www.w3.org/2000/svg">
<path d="M0.92 18V0.719999H4.184V18H0.92ZM7.78156 18V0.719999H15.0776C15.2456 0.719999 15.4696 0.727999 15.7496 0.743999C16.0376 0.751999 16.2936 0.776 16.5176 0.816C17.5496 0.975999 18.3936 1.316 19.0496 1.836C19.7136 2.356 20.2016 3.012 20.5136 3.804C20.8256 4.588 20.9816 5.464 20.9816 6.432C20.9816 7.4 20.8216 8.28 20.5016 9.072C20.1896 9.856 19.7016 10.508 19.0376 11.028C18.3816 11.548 17.5416 11.888 16.5176 12.048C16.2936 12.08 16.0376 12.104 15.7496 12.12C15.4616 12.136 15.2376 12.144 15.0776 12.144H11.0456V18H7.78156ZM11.0456 9.096H14.9336C15.1016 9.096 15.2856 9.088 15.4856 9.072C15.6856 9.056 15.8696 9.024 16.0376 8.976C16.4776 8.856 16.8176 8.656 17.0576 8.376C17.2976 8.088 17.4616 7.772 17.5496 7.428C17.6456 7.076 17.6936 6.744 17.6936 6.432C17.6936 6.12 17.6456 5.792 17.5496 5.448C17.4616 5.096 17.2976 4.78 17.0576 4.5C16.8176 4.212 16.4776 4.008 16.0376 3.888C15.8696 3.84 15.6856 3.808 15.4856 3.792C15.2856 3.776 15.1016 3.768 14.9336 3.768H11.0456V9.096ZM23.3909 18V0.719999H30.3029C31.5349 0.719999 32.5309 0.967999 33.2909 1.464C34.0509 1.952 34.6069 2.568 34.9589 3.312C35.3109 4.056 35.4869 4.808 35.4869 5.568C35.4869 6.536 35.2669 7.34 34.8269 7.98C34.3949 8.62 33.7989 9.048 33.0389 9.264V8.664C34.1189 8.888 34.9269 9.388 35.4629 10.164C36.0069 10.94 36.2789 11.808 36.2789 12.768C36.2789 13.8 36.0869 14.708 35.7029 15.492C35.3269 16.276 34.7509 16.892 33.9749 17.34C33.1989 17.78 32.2229 18 31.0469 18H23.3909ZM26.7029 14.928H30.7109C31.1509 14.928 31.5429 14.836 31.8869 14.652C32.2309 14.46 32.4989 14.196 32.6909 13.86C32.8909 13.516 32.9909 13.112 32.9909 12.648C32.9909 12.24 32.9069 11.876 32.7389 11.556C32.5709 11.236 32.3149 10.984 31.9709 10.8C31.6349 10.608 31.2149 10.512 30.7109 10.512H26.7029V14.928ZM26.7029 7.464H30.2549C30.6229 7.464 30.9509 7.4 31.2389 7.272C31.5269 7.144 31.7549 6.948 31.9229 6.684C32.0909 6.412 32.1749 6.064 32.1749 5.64C32.1749 5.112 32.0109 4.668 31.6829 4.308C31.3549 3.948 30.8789 3.768 30.2549 3.768H26.7029V7.464Z" fill="#2D2D2D"/>
</svg>
