<svg width="36" height="18" viewBox="0 0 36 18" fill="none" xmlns="http://www.w3.org/2000/svg">
<path d="M0.92 18V0.719999H4.184V18H0.92ZM11.7896 18V3.768H6.34156V0.719999H20.5016V3.768H15.0536V18H11.7896ZM22.43 18V0.719999H29.342C30.574 0.719999 31.57 0.967999 32.33 1.464C33.09 1.952 33.646 2.568 33.998 3.312C34.35 4.056 34.526 4.808 34.526 5.568C34.526 6.536 34.306 7.34 33.866 7.98C33.434 8.62 32.838 9.048 32.078 9.264V8.664C33.158 8.888 33.966 9.388 34.502 10.164C35.046 10.94 35.318 11.808 35.318 12.768C35.318 13.8 35.126 14.708 34.742 15.492C34.366 16.276 33.79 16.892 33.014 17.34C32.238 17.78 31.262 18 30.086 18H22.43ZM25.742 14.928H29.75C30.19 14.928 30.582 14.836 30.926 14.652C31.27 14.46 31.538 14.196 31.73 13.86C31.93 13.516 32.03 13.112 32.03 12.648C32.03 12.24 31.946 11.876 31.778 11.556C31.61 11.236 31.354 10.984 31.01 10.8C30.674 10.608 30.254 10.512 29.75 10.512H25.742V14.928ZM25.742 7.464H29.294C29.662 7.464 29.99 7.4 30.278 7.272C30.566 7.144 30.794 6.948 30.962 6.684C31.13 6.412 31.214 6.064 31.214 5.64C31.214 5.112 31.05 4.668 30.722 4.308C30.394 3.948 29.918 3.768 29.294 3.768H25.742V7.464Z" fill="#2D2D2D"/>
</svg>
