<svg width="100" height="18" viewBox="0 0 100 18" fill="none" xmlns="http://www.w3.org/2000/svg">
<g clip-path="url(#clip0_102_72)">
<path d="M23.2371 3.48291V14.64H30.931V12.4148H25.8383V3.48291H23.2371Z" fill="#2D2D2D"/>
<path d="M32.4799 5.12833C32.7307 5.37905 33.0753 5.50442 33.4828 5.50442C33.8902 5.50442 34.2193 5.37905 34.4856 5.12833C34.7364 4.87762 34.8774 4.54854 34.8774 4.14112C34.8774 3.74937 34.7364 3.4203 34.4856 3.16958C34.2193 2.91886 33.8902 2.77783 33.4828 2.77783C33.0753 2.77783 32.7307 2.91886 32.4799 3.16958C32.2135 3.4203 32.0881 3.74937 32.0881 4.14112C32.0881 4.54854 32.2135 4.87762 32.4799 5.12833ZM32.3232 6.61698V14.64H34.6424V6.61698H32.3232Z" fill="#2D2D2D"/>
<path d="M35.6998 6.61719L38.4891 14.6402H41.8425L44.6318 6.61719H42.2029L40.2442 12.7442H40.0875L38.1444 6.61719H35.6998Z" fill="#2D2D2D"/>
<path d="M47.1147 14.3579C47.7885 14.7183 48.5563 14.8906 49.4182 14.8906C50.3897 14.8906 51.2359 14.687 51.9567 14.2796C52.6776 13.8721 53.1633 13.2924 53.4141 12.5716L51.4396 12.07C51.2516 12.4148 51.0009 12.6812 50.6718 12.8693C50.327 13.073 49.951 13.167 49.5123 13.167C48.9481 13.167 48.4624 13.0103 48.0862 12.6656C47.7102 12.3365 47.4751 11.8821 47.3811 11.3023H53.6805C53.6961 11.1926 53.7118 10.9575 53.7118 10.5971C53.7118 9.7666 53.5238 9.03012 53.1633 8.38764C52.8029 7.76084 52.3015 7.2594 51.6434 6.89899C50.9853 6.55425 50.2487 6.36621 49.4025 6.36621C48.5407 6.36621 47.7729 6.55425 47.1147 6.89899C46.4409 7.24373 45.9238 7.74517 45.5477 8.37197C45.1716 9.01444 44.9835 9.75093 44.9835 10.5658C44.9835 11.4119 45.1716 12.1641 45.5477 12.8222C45.9238 13.4803 46.4409 13.9975 47.1147 14.3579ZM51.3457 9.86063H47.3654C47.4594 9.32784 47.6789 8.88909 48.0235 8.57568C48.3683 8.26228 48.8071 8.08991 49.3398 8.08991C49.8727 8.08991 50.3114 8.26228 50.6874 8.59135C51.0478 8.92042 51.2673 9.34351 51.3457 9.86063Z" fill="#2D2D2D"/>
<path d="M55.8273 14.1386C56.5011 14.6714 57.4413 14.9221 58.6323 14.9221C59.8075 14.9221 60.732 14.687 61.4058 14.2013C62.0797 13.7312 62.4243 13.0574 62.4243 12.1955C62.4243 11.6001 62.252 11.1456 61.9386 10.8009C61.6252 10.4562 61.2334 10.2211 60.7634 10.0801C60.2932 9.93906 59.7605 9.82936 59.1494 9.75101C58.5852 9.68833 58.1778 9.64133 57.9428 9.59432C57.7077 9.56298 57.5039 9.48462 57.316 9.35927C57.1279 9.23391 57.0495 9.06153 57.0495 8.82649C57.0495 8.54443 57.1749 8.30938 57.4413 8.13701C57.692 7.96464 58.0368 7.87061 58.4755 7.87061C58.9456 7.87061 59.3217 7.98031 59.6037 8.19969C59.8858 8.41907 60.0426 8.70112 60.0582 9.04586H62.1737C62.1737 8.51308 62.017 8.02731 61.7035 7.6199C61.3902 7.21248 60.9515 6.88341 60.3872 6.66403C59.8231 6.44465 59.1807 6.33496 58.4755 6.33496C57.3943 6.33496 56.5325 6.58568 55.8743 7.07145C55.2162 7.55722 54.9028 8.19969 54.9028 9.01453C54.9028 9.657 55.0751 10.1428 55.4199 10.4875C55.7646 10.8322 56.1563 11.0673 56.6265 11.1927C57.0966 11.3181 57.6607 11.412 58.3501 11.4747C58.9613 11.5374 59.4158 11.6314 59.7135 11.7411C59.9955 11.8508 60.1522 12.0701 60.1522 12.3993C60.1522 12.7126 60.0112 12.9477 59.7448 13.12C59.4785 13.3081 59.1337 13.3865 58.6949 13.3865C58.1307 13.3865 57.6764 13.2611 57.3473 12.9947C57.0183 12.744 56.8615 12.3993 56.8615 11.9605H54.8087C54.8087 12.885 55.1378 13.6058 55.8273 14.1386Z" fill="#2D2D2D"/>
<path d="M65.2229 14.1075C65.6931 14.6402 66.3355 14.8909 67.1504 14.8909C67.3854 14.8909 67.6518 14.8753 67.9495 14.8283C68.2316 14.7812 68.498 14.7185 68.7174 14.6402V12.9792C68.4039 13.0576 68.1219 13.0889 67.8869 13.0889C67.5578 13.0889 67.2914 12.9949 67.1034 12.7911C66.9153 12.5874 66.8213 12.3054 66.8213 11.9606V8.30951H68.6547V6.61715H66.8213L66.8369 4.07861H65.0192L64.5648 6.61715H63.3739V8.30951H64.5021V12.0546C64.5021 12.9008 64.7371 13.5903 65.2229 14.1075Z" fill="#2D2D2D"/>
<path d="M71.7055 14.3736C72.3636 14.7183 73.1471 14.8906 74.0403 14.8906C74.9179 14.8906 75.6857 14.7183 76.3595 14.3736C77.0334 14.0288 77.5504 13.5274 77.9265 12.8849C78.3026 12.2425 78.4906 11.4903 78.4906 10.6285C78.4906 9.78227 78.3026 9.03012 77.9265 8.38764C77.5504 7.74517 77.0334 7.24373 76.3595 6.89899C75.6857 6.55425 74.9179 6.36621 74.0403 6.36621C73.1471 6.36621 72.3636 6.55425 71.7055 6.89899C71.0317 7.24373 70.5146 7.74517 70.1385 8.38764C69.7624 9.03012 69.5901 9.78227 69.5901 10.6285C69.5901 11.4903 69.7624 12.2425 70.1385 12.8849C70.5146 13.5274 71.0317 14.0288 71.7055 14.3736ZM75.5604 12.2738C75.1529 12.7126 74.6515 12.9162 74.0403 12.9162C73.4135 12.9162 72.8964 12.7126 72.5046 12.2738C72.0972 11.8507 71.9092 11.3023 71.9092 10.6285C71.9092 9.97031 72.0972 9.42186 72.5046 8.99877C72.8964 8.57568 73.4135 8.3563 74.0403 8.3563C74.6515 8.3563 75.1529 8.57568 75.5604 8.99877C75.9521 9.42186 76.1558 9.97031 76.1558 10.6285C76.1558 11.3023 75.9521 11.8507 75.5604 12.2738Z" fill="#2D2D2D"/>
<path d="M79.8977 6.61713V14.6402H82.2168V10.5346C82.2168 9.92351 82.3735 9.42208 82.687 9.03033C83.0003 8.65425 83.4078 8.45053 83.9248 8.45053C84.0973 8.45053 84.301 8.48187 84.5517 8.52888C84.8024 8.59156 85.0218 8.65425 85.2412 8.74827V6.66415C84.9591 6.53879 84.6614 6.46045 84.3323 6.46045C83.9092 6.46045 83.5174 6.5858 83.157 6.80518C82.7966 7.04022 82.5302 7.33797 82.3579 7.71405H82.1855V6.61713H79.8977Z" fill="#2D2D2D"/>
<path d="M86.4623 6.61693V14.64H88.7814V10.0643C88.7814 9.56289 88.9067 9.1398 89.1889 8.82641C89.4552 8.513 89.8156 8.3563 90.2857 8.3563C90.7245 8.3563 91.0692 8.513 91.3356 8.82641C91.5864 9.1398 91.7274 9.54722 91.7274 10.0643V14.64H94.0622V10.0643C94.0622 9.56289 94.2033 9.15547 94.4853 8.84207C94.7674 8.52867 95.1434 8.3563 95.5979 8.3563C96.0367 8.37197 96.3971 8.54435 96.6791 8.85774C96.9612 9.17115 97.1022 9.57856 97.1022 10.0643V14.64H99.4214V9.67258C99.4214 9.04578 99.2803 8.46599 99.0296 7.96455C98.7633 7.46311 98.4028 7.08704 97.9484 6.80497C97.4783 6.52291 96.9612 6.38188 96.3814 6.38188C95.8173 6.38188 95.3159 6.52291 94.877 6.7893C94.4383 7.05569 94.1092 7.4161 93.8585 7.8862H93.7018C93.4825 7.43177 93.1534 7.07136 92.6989 6.7893C92.2445 6.50724 91.7587 6.36621 91.2416 6.36621C90.7402 6.36621 90.2857 6.50724 89.8783 6.75796C89.4708 7.02436 89.1418 7.3691 88.9225 7.80785H88.7657V6.61693H86.4623Z" fill="#2D2D2D"/>
<path d="M16.81 8.71376C16.81 11.0354 16.8879 13.739 15.1598 15.473C13.4318 17.2068 10.7267 17.1186 8.40505 17.1186C6.08341 17.1186 3.37973 17.1965 1.64586 15.4685C-0.0880225 13.7405 0.000140859 11.0354 0.000140859 8.71376C0.000140859 6.39213 -0.0762673 3.68845 1.65174 1.95457C3.37973 0.220693 6.08488 0.308857 8.40505 0.308857C10.7252 0.308857 13.4304 0.232448 15.1642 1.96045C16.8981 3.68845 16.81 6.39359 16.81 8.71376Z" fill="#2D2D2D"/>
<path d="M9.35267 4.32031H3.97618C3.50062 4.32031 3.11511 4.70582 3.11511 5.18138C3.11511 5.65693 3.50062 6.04244 3.97618 6.04244H9.35267C9.82822 6.04244 10.2137 5.65693 10.2137 5.18138C10.2137 4.70582 9.82822 4.32031 9.35267 4.32031Z" fill="white"/>
<path d="M11.113 7.85254H5.73656C5.26102 7.85254 4.87549 8.23805 4.87549 8.7136C4.87549 9.18916 5.26102 9.57466 5.73656 9.57466H11.113C11.5886 9.57466 11.9741 9.18916 11.9741 8.7136C11.9741 8.23805 11.5886 7.85254 11.113 7.85254Z" fill="white"/>
<path d="M9.35276 11.3862H7.49693C7.02137 11.3862 6.63586 11.7718 6.63586 12.2473C6.63586 12.7229 7.02137 13.1084 7.49693 13.1084H9.35276C9.82832 13.1084 10.2138 12.7229 10.2138 12.2473C10.2138 11.7718 9.82832 11.3862 9.35276 11.3862Z" fill="white"/>
<path d="M13.6962 5.18138C13.6962 4.70582 13.3107 4.32031 12.8352 4.32031C12.3596 4.32031 11.9741 4.70582 11.9741 5.18138C11.9741 5.65693 12.3596 6.04244 12.8352 6.04244C13.3107 6.04244 13.6962 5.65693 13.6962 5.18138Z" fill="white"/>
</g>
<defs>
<clipPath id="clip0_102_72">
<rect width="100" height="16.8113" fill="white" transform="translate(0 0.308594)"/>
</clipPath>
</defs>
</svg>
