<svg width="314" height="314" viewBox="0 0 314 314" fill="none" xmlns="http://www.w3.org/2000/svg">
<path d="M105 20C105 8.9543 113.954 0 125 0H314V95H125C113.954 95 105 86.0457 105 75V20Z" fill="#171717"/>
<path d="M294 105C305.046 105 314 113.954 314 125L314 294C314 305.046 305.046 314 294 314L219 314L219 105L294 105Z" fill="#171717"/>
<path d="M209 314L20 314C8.9543 314 7.8281e-07 305.046 1.74846e-06 294L6.55671e-06 239C7.52235e-06 227.954 8.95431 219 20 219L209 219L209 314Z" fill="#171717"/>
<path d="M20 209C8.9543 209 -3.91405e-07 200.046 -8.74228e-07 189L-8.26145e-06 20C-8.74428e-06 8.9543 8.9543 -3.91405e-07 20 -8.74228e-07L95 -4.15258e-06L95 209L20 209Z" fill="#171717"/>
<rect x="109" y="105" width="100" height="100" fill="#171717"/>
</svg>
