<svg width="100" height="17" viewBox="0 0 100 17" fill="none" xmlns="http://www.w3.org/2000/svg">
<g clip-path="url(#clip0_102_71)">
<path d="M0 8.71437C3.76724e-07 4.28906 3.5874 0.70166 8.01271 0.70166C11.2664 0.70166 14.0672 2.64103 15.3221 5.42686L4.7252 16.0238C4.27049 15.819 3.8383 15.5729 3.43341 15.2904L10.0095 8.71437H8.01271L2.34687 14.3802C0.896855 12.9302 -1.93436e-07 10.927 0 8.71437Z" fill="#2D2D2D"/>
<path d="M16.0254 8.71712L8.01546 16.7271C12.4386 16.7256 16.0239 13.1402 16.0254 8.71712Z" fill="#2D2D2D"/>
<path fill-rule="evenodd" clip-rule="evenodd" d="M20.2738 3.13721V14.0841H21.8044V10.6908H24.0904C26.1688 10.6697 27.8613 9.09771 27.8613 7.03491C27.8613 4.7467 26.2143 3.13721 24.0989 3.13721H20.2738ZM26.3963 6.93318C26.3963 8.21571 25.3493 9.34282 24.0723 9.34956C23.6753 9.34935 23.2783 9.34946 22.8815 9.34953C22.5224 9.34963 22.1634 9.3497 21.8044 9.34956V4.48737L24.061 4.48747C25.343 4.48747 26.3963 5.58302 26.3963 6.93318Z" fill="#2D2D2D"/>
<path d="M89.3079 14.0844V3.13738L90.2471 3.13727C90.5327 3.13721 90.7247 3.13716 90.8465 3.13728V14.0844H89.3079Z" fill="#2D2D2D"/>
<path d="M30.194 14.0845V3.14366C29.9225 3.14354 29.6836 3.14355 29.2512 3.14356L28.6555 3.14357V14.0845H30.194Z" fill="#2D2D2D"/>
<path fill-rule="evenodd" clip-rule="evenodd" d="M39.6728 14.0843V5.88888H38.1341V7.04274H38.1045C37.4684 6.11076 36.4624 5.66699 35.2643 5.66699C32.853 5.66699 30.9742 7.50134 30.9742 10.1197C30.9742 12.4867 32.9269 14.2914 35.3233 14.2914C36.4921 14.2914 37.5277 13.7885 38.1045 12.8121H38.1341V14.0843H39.6728ZM35.3085 12.8861C33.7701 12.8861 32.5127 11.5399 32.5127 10.0014C32.5127 8.38891 33.7701 7.07232 35.3085 7.07232C37.0099 7.07232 38.1638 8.40374 38.1638 10.0014C38.1638 11.5547 36.9065 12.8861 35.3085 12.8861Z" fill="#2D2D2D"/>
<path d="M48.2562 14.0843V9.17296C48.2562 6.9096 46.8065 5.66699 44.839 5.66699C43.8923 5.66699 43.049 5.97765 42.4426 6.76166H42.413V5.88888H40.8754V14.0843H42.5167V9.60197C42.5167 8.0635 43.3304 7.07232 44.6763 7.07232C46.0374 7.07232 46.7179 7.88595 46.7179 9.61676V14.0843H48.2562Z" fill="#2D2D2D"/>
<path fill-rule="evenodd" clip-rule="evenodd" d="M57.3724 10.5936C57.408 10.3379 57.408 10.1168 57.408 9.88305C57.408 7.53092 55.5736 5.66699 53.1623 5.66699C50.9876 5.66699 49.0349 7.47176 49.0349 10.0606C49.0349 12.2499 50.899 14.2914 53.2068 14.2914C54.9671 14.2914 56.5058 13.1967 57.1419 11.5103H55.6032C55.1299 12.3831 54.2276 12.8861 53.2658 12.8861C52.0204 12.8861 50.9491 12.0298 50.5838 10.691H57.3561C57.3621 10.6597 57.3674 10.6268 57.3724 10.5936ZM50.5863 9.34966C50.7635 8.00776 51.9851 7.07232 53.2068 7.07232C54.4853 7.07232 55.6805 8.02118 55.8567 9.34966H50.5863Z" fill="#2D2D2D"/>
<path d="M68.6026 5.87286H70.3149C70.054 4.52881 68.5196 3.13721 66.4561 3.13721C64.2972 3.13721 62.6425 4.37173 62.6425 6.22612C62.6425 7.7233 63.7127 8.6418 65.4409 9.10932L66.7123 9.45606C67.8627 9.76075 68.7536 10.1661 68.7536 11.1222C68.7536 12.1729 67.7505 12.8663 66.3685 12.8663C65.2669 12.8663 64.3279 12.4337 64.0561 11.5291H62.3459C62.6266 13.1872 64.102 14.2899 66.3791 14.2899C68.9061 14.2899 70.3611 12.9608 70.3611 11.1379C70.3611 9.19951 68.6297 8.42115 67.2641 8.08493L66.2132 7.81179C65.3728 7.5964 64.2552 7.16121 64.2602 6.13156C64.2602 5.21751 65.0957 4.48719 66.4194 4.48719C67.5517 4.48719 68.3837 5.02609 68.6026 5.87286Z" fill="#2D2D2D"/>
<path d="M79.1108 11.5292C78.4292 13.2846 76.898 14.2914 75.1288 14.2914C72.7765 14.2914 70.9276 12.3979 70.9276 10.0606C70.9276 7.59011 72.7172 5.66699 75.114 5.66699C76.9209 5.66699 78.5753 6.76547 79.1193 8.45023H77.3847C76.922 7.58538 76.2047 7.07232 75.1585 7.07232C73.5457 7.07232 72.4659 8.30017 72.4659 9.97179C72.4659 11.599 73.5753 12.8861 75.1288 12.8861C76.1214 12.8861 76.9294 12.3838 77.377 11.5292H79.1108Z" fill="#2D2D2D"/>
<path fill-rule="evenodd" clip-rule="evenodd" d="M88.1035 5.88888V14.0843H86.5652V12.8121H86.5355C85.9584 13.7885 84.9231 14.2914 83.7544 14.2914C81.358 14.2914 79.4053 12.4867 79.4053 10.1197C79.4053 7.50134 81.2838 5.66699 83.6951 5.66699C84.8934 5.66699 85.8994 6.11076 86.5355 7.04274H86.5652V5.88888H88.1035ZM80.9436 10.0014C80.9436 11.5399 82.2009 12.8861 83.7395 12.8861C85.3371 12.8861 86.5945 11.5547 86.5945 10.0014C86.5945 8.40374 85.4409 7.07232 83.7395 7.07232C82.2009 7.07232 80.9436 8.38891 80.9436 10.0014Z" fill="#2D2D2D"/>
<path fill-rule="evenodd" clip-rule="evenodd" d="M99.9665 10.5488C99.9962 10.3119 99.9962 10.1032 99.9962 9.88312V9.88305C99.9962 9.84631 99.9958 9.80974 99.9951 9.77324C99.9877 9.47751 99.9513 9.18997 99.8885 8.91337C99.7731 8.40455 99.568 7.93279 99.2888 7.51546C98.5394 6.39513 97.2577 5.66699 95.7505 5.66699C93.5761 5.66699 91.6234 7.47176 91.6234 10.0606C91.6234 10.3342 91.6524 10.6056 91.7078 10.8709C92.0961 12.7284 93.7759 14.2914 95.795 14.2914C97.5553 14.2914 99.0939 13.1967 99.73 11.5103H98.1914C98.1324 11.6194 98.0664 11.7227 97.9948 11.82C97.4918 12.501 96.6954 12.8861 95.8543 12.8861C94.6086 12.8861 93.5373 12.0298 93.1723 10.691H99.9443C99.9467 10.6783 99.9492 10.6654 99.9513 10.6523H99.952C99.9573 10.6172 99.9623 10.5827 99.9665 10.5488ZM93.197 9.21034C93.4374 7.94345 94.6164 7.07232 95.795 7.07232C97.0738 7.07232 98.2687 8.02118 98.4448 9.34966H93.1748C93.1808 9.30271 93.1882 9.25626 93.197 9.21034Z" fill="#2D2D2D"/>
<path d="M60.1472 5.8903H61.8658V7.23262H60.1472V11.8146C60.1472 12.619 60.5369 12.843 60.9724 12.8838C61.0031 12.8846 61.0303 12.8857 61.054 12.8869C61.3187 12.9011 61.5259 12.8607 61.6526 12.8191C61.833 13.2282 62.0773 13.6028 62.3798 13.9321C61.8464 14.2529 61.2132 14.3136 60.7352 14.285C60.5047 14.2729 60.2806 14.2346 60.0695 14.1698C59.1281 13.8831 58.832 13.2068 58.7253 12.9297L58.7321 12.9294C58.6512 12.6965 58.6071 12.4335 58.6085 12.1402V7.23262H57.3999V5.8903H58.6085V3.13721H60.1472V5.8903Z" fill="#2D2D2D"/>
</g>
<defs>
<clipPath id="clip0_102_71">
<rect width="100" height="16.0254" fill="white" transform="translate(0 0.70166)"/>
</clipPath>
</defs>
</svg>
