<svg width="79" height="19" viewBox="0 0 79 19" fill="none" xmlns="http://www.w3.org/2000/svg">
<path d="M0.68 18V0.719999H7.976C8.144 0.719999 8.368 0.727999 8.648 0.743999C8.936 0.751999 9.192 0.776 9.416 0.816C10.448 0.975999 11.292 1.316 11.948 1.836C12.612 2.356 13.1 3.012 13.412 3.804C13.724 4.588 13.88 5.464 13.88 6.432C13.88 7.4 13.72 8.28 13.4 9.072C13.088 9.856 12.6 10.508 11.936 11.028C11.28 11.548 10.44 11.888 9.416 12.048C9.192 12.08 8.936 12.104 8.648 12.12C8.36 12.136 8.136 12.144 7.976 12.144H3.944V18H0.68ZM3.944 9.096H7.832C8 9.096 8.184 9.088 8.384 9.072C8.584 9.056 8.768 9.024 8.936 8.976C9.376 8.856 9.716 8.656 9.956 8.376C10.196 8.088 10.36 7.772 10.448 7.428C10.544 7.076 10.592 6.744 10.592 6.432C10.592 6.12 10.544 5.792 10.448 5.448C10.36 5.096 10.196 4.78 9.956 4.5C9.716 4.212 9.376 4.008 8.936 3.888C8.768 3.84 8.584 3.808 8.384 3.792C8.184 3.776 8 3.768 7.832 3.768H3.944V9.096ZM23.7054 18.36C21.9774 18.36 20.4854 17.984 19.2294 17.232C17.9814 16.48 17.0174 15.428 16.3374 14.076C15.6654 12.724 15.3294 11.152 15.3294 9.36C15.3294 7.568 15.6654 5.996 16.3374 4.644C17.0174 3.292 17.9814 2.24 19.2294 1.488C20.4854 0.736 21.9774 0.36 23.7054 0.36C25.4334 0.36 26.9214 0.736 28.1694 1.488C29.4254 2.24 30.3894 3.292 31.0614 4.644C31.7414 5.996 32.0814 7.568 32.0814 9.36C32.0814 11.152 31.7414 12.724 31.0614 14.076C30.3894 15.428 29.4254 16.48 28.1694 17.232C26.9214 17.984 25.4334 18.36 23.7054 18.36ZM23.7054 15.288C24.8014 15.304 25.7134 15.068 26.4414 14.58C27.1694 14.092 27.7134 13.4 28.0734 12.504C28.4414 11.608 28.6254 10.56 28.6254 9.36C28.6254 8.16 28.4414 7.12 28.0734 6.24C27.7134 5.36 27.1694 4.676 26.4414 4.188C25.7134 3.7 24.8014 3.448 23.7054 3.432C22.6094 3.416 21.6974 3.652 20.9694 4.14C20.2414 4.628 19.6934 5.32 19.3254 6.216C18.9654 7.112 18.7854 8.16 18.7854 9.36C18.7854 10.56 18.9654 11.6 19.3254 12.48C19.6934 13.36 20.2414 14.044 20.9694 14.532C21.6974 15.02 22.6094 15.272 23.7054 15.288ZM34.7169 18V0.719999H37.9809V14.952H45.4209V18H34.7169ZM47.7013 18V0.719999H50.9653V18H47.7013ZM58.1868 18.36C56.8108 18.36 55.6748 18.008 54.7788 17.304C53.8908 16.6 53.2588 15.648 52.8828 14.448L56.0988 13.68C56.1708 14.12 56.4028 14.504 56.7948 14.832C57.1868 15.152 57.6028 15.312 58.0428 15.312C58.3468 15.312 58.6708 15.228 59.0148 15.06C59.3668 14.892 59.6188 14.624 59.7708 14.256C59.8668 14.024 59.9228 13.74 59.9388 13.404C59.9548 13.068 59.9628 12.68 59.9628 12.24V0.719999H63.2748V12.24C63.2748 12.792 63.2708 13.272 63.2628 13.68C63.2628 14.088 63.2228 14.472 63.1428 14.832C63.0708 15.184 62.9228 15.552 62.6988 15.936C62.2108 16.784 61.5748 17.4 60.7908 17.784C60.0068 18.168 59.1388 18.36 58.1868 18.36ZM66.8675 18V0.719999H78.1475V3.768H70.1315V7.464H76.7075V10.512H70.1315V14.952H78.1475V18H66.8675Z" fill="#2D2D2D"/>
</svg>
