<svg width="100" height="22" viewBox="0 0 100 22" fill="none" xmlns="http://www.w3.org/2000/svg">
<g clip-path="url(#clip0_102_70)">
<path d="M0 1.96345C0 0.879067 0.879067 0 1.96346 0H9.64366C10.728 0 11.6071 0.879067 11.6071 1.96346V3.48256C11.6071 4.02475 11.1676 4.46429 10.6254 4.46429H0.981723C0.439534 4.46429 0 4.02475 0 3.48256V1.96345Z" fill="#2D2D2D"/>
<path d="M0 8.12479C0 7.5826 0.439534 7.14307 0.981723 7.14307H19.4651C20.5495 7.14307 21.4286 8.02214 21.4286 9.10655V14.1971C21.4286 14.7392 20.989 15.1788 20.4469 15.1788H1.96346C0.879068 15.1788 0 14.2997 0 13.2153V8.12479Z" fill="#2D2D2D"/>
<path d="M9.82141 18.8386C9.82141 18.2965 10.261 17.8569 10.8031 17.8569H20.4469C20.989 17.8569 21.4286 18.2965 21.4286 18.8386V19.4649C21.4286 20.5493 20.5494 21.4284 19.4651 21.4284H11.7849C10.7005 21.4284 9.82141 20.5493 9.82141 19.4649V18.8386Z" fill="#2D2D2D"/>
<path d="M33.5675 13.1615H35.6313L39.4642 19.4268H44.1571L39.9065 12.7192C42.2652 11.9084 43.6411 10.0903 43.6411 7.46129C43.6411 3.77581 41.0613 1.78564 36.9089 1.78564H29.4643V19.4268H33.5675V13.1615ZM33.5675 9.82002V5.25H36.6879C38.6288 5.25 39.6116 6.08538 39.6116 7.535C39.6116 8.96002 38.6288 9.82002 36.6879 9.82002H33.5675Z" fill="#2D2D2D"/>
<path d="M51.217 19.6974C53.7968 19.6974 56.1556 18.3952 57.1138 15.9136L53.8214 14.8571C53.4529 15.9874 52.4947 16.577 51.2662 16.577C49.7673 16.577 48.7109 15.5697 48.4406 13.8006H57.2121V12.7687C57.2121 9.10771 55.0745 6.2085 51.1433 6.2085C47.4087 6.2085 44.6568 9.10771 44.6568 12.9407C44.6568 16.9701 47.3104 19.6974 51.217 19.6974ZM51.0941 9.25521C52.5438 9.25521 53.3055 10.238 53.33 11.3927H48.5635C48.9565 9.96771 49.8902 9.25521 51.0941 9.25521Z" fill="#2D2D2D"/>
<path d="M59.4404 15.9623C59.4404 18.6158 60.8409 19.5495 63.6419 19.5495C64.5755 19.5495 65.3126 19.4758 66.0005 19.3775V16.1589C65.5583 16.208 65.3371 16.2325 64.8704 16.2325C63.8876 16.2325 63.3224 16.036 63.3224 14.9549V9.72155H65.8531V6.47832H63.3224V2.89111H59.4404V6.47832H57.7942V9.72155H59.4404V15.9623Z" fill="#2D2D2D"/>
<path d="M80.0642 12.9652C80.0642 8.93575 77.3861 6.2085 73.5777 6.2085C69.7449 6.2085 67.0913 8.93575 67.0913 12.9652C67.0913 16.9947 69.7449 19.6974 73.5777 19.6974C77.3861 19.6974 80.0642 16.9947 80.0642 12.9652ZM70.9979 12.9652C70.9979 10.7048 72.0053 9.42717 73.5777 9.42717C75.1502 9.42717 76.1576 10.7048 76.1576 12.9652C76.1576 15.2257 75.1502 16.5032 73.5777 16.5032C72.0053 16.5032 70.9979 15.2257 70.9979 12.9652Z" fill="#2D2D2D"/>
<path d="M94.2205 12.9652C94.2205 8.93575 91.5429 6.2085 87.7344 6.2085C83.9014 6.2085 81.2479 8.93575 81.2479 12.9652C81.2479 16.9947 83.9014 19.6974 87.7344 19.6974C91.5429 19.6974 94.2205 16.9947 94.2205 12.9652ZM85.1546 12.9652C85.1546 10.7048 86.1619 9.42717 87.7344 9.42717C89.3071 9.42717 90.3143 10.7048 90.3143 12.9652C90.3143 15.2257 89.3071 16.5032 87.7344 16.5032C86.1619 16.5032 85.1546 15.2257 85.1546 12.9652Z" fill="#2D2D2D"/>
<path d="M100 1.78564H96.0687V19.4268H100V1.78564Z" fill="#2D2D2D"/>
</g>
<defs>
<clipPath id="clip0_102_70">
<rect width="100" height="21.4286" fill="white"/>
</clipPath>
</defs>
</svg>
