<svg width="100" height="21" viewBox="0 0 100 21" fill="none" xmlns="http://www.w3.org/2000/svg">
<g clip-path="url(#clip0_102_68)">
<path d="M26.058 12.4806C26.1611 13.4446 27.038 15.0973 29.5829 15.0973C31.801 15.0973 32.8673 13.6857 32.8673 12.3084C32.8673 11.0689 32.0246 10.0532 30.3568 9.70884L29.153 9.45063C28.6888 9.36456 28.3793 9.10633 28.3793 8.69315C28.3793 8.2111 28.8607 7.8496 29.4626 7.8496C30.4255 7.8496 30.7866 8.48655 30.8554 8.98583L32.764 8.55544C32.6609 7.64301 31.8526 6.11084 29.4454 6.11084C27.6227 6.11084 26.2816 7.36757 26.2816 8.88251C26.2816 10.0704 27.0208 11.0517 28.6544 11.4132L29.7721 11.6714C30.4255 11.8092 30.6835 12.1191 30.6835 12.4978C30.6835 12.9454 30.3224 13.3414 29.5657 13.3414C28.5685 13.3414 28.0697 12.7216 28.0182 12.0502L26.058 12.4806Z" fill="#2D2D2D"/>
<path d="M40.1757 14.8392H42.3596C42.3251 14.5465 42.2735 13.9612 42.2735 13.307V6.36914H39.9864V11.2928C39.9864 12.2741 39.4019 12.9627 38.3875 12.9627C37.3214 12.9627 36.8398 12.2052 36.8398 11.2583V6.36914H34.5529V11.7232C34.5529 13.5652 35.722 15.063 37.7683 15.063C38.6623 15.063 39.6429 14.7187 40.1071 13.9268C40.1071 14.2711 40.1413 14.667 40.1757 14.8392Z" fill="#2D2D2D"/>
<path d="M47.001 18.11V14.0128C47.4135 14.5809 48.2734 15.0457 49.4428 15.0457C51.8328 15.0457 53.4318 13.152 53.4318 10.5868C53.4318 8.07341 52.0048 6.17969 49.5287 6.17969C48.2564 6.17969 47.3106 6.74778 46.9323 7.40199V6.36905H44.7142V18.11H47.001ZM51.1793 10.6041C51.1793 12.1191 50.2509 12.997 49.0815 12.997C47.9125 12.997 46.9667 12.1018 46.9667 10.6041C46.9667 9.10633 47.9125 8.22833 49.0815 8.22833C50.2509 8.22833 51.1793 9.10633 51.1793 10.6041Z" fill="#2D2D2D"/>
<path d="M54.7271 12.5322C54.7271 13.8578 55.8274 15.0801 57.6331 15.0801C58.888 15.0801 59.6962 14.4948 60.126 13.8234C60.126 14.1505 60.1604 14.6153 60.2121 14.8391H62.3098C62.2582 14.5464 62.2069 13.9439 62.2069 13.4963V9.33012C62.2069 7.62578 61.2095 6.11084 58.5272 6.11084C56.2573 6.11084 55.0363 7.57413 54.899 8.89974L56.9279 9.33012C56.9968 8.58986 57.547 7.95289 58.5441 7.95289C59.5073 7.95289 59.9715 8.45213 59.9715 9.05468C59.9715 9.34735 59.8169 9.58838 59.3353 9.65723L57.2548 9.96711C55.8448 10.1737 54.7271 11.0172 54.7271 12.5322ZM58.1143 13.3758C57.3751 13.3758 57.0138 12.8937 57.0138 12.3945C57.0138 11.7403 57.478 11.4132 58.0629 11.3271L59.9715 11.0345V11.4132C59.9715 12.911 59.0773 13.3758 58.1143 13.3758Z" fill="#2D2D2D"/>
<path d="M66.7303 14.8391V13.8061C67.1771 14.5292 68.0713 15.0457 69.2407 15.0457C71.6482 15.0457 73.2302 13.1347 73.2302 10.5696C73.2302 8.05613 71.8028 6.14522 69.3267 6.14522C68.0713 6.14522 67.1429 6.69611 66.7646 7.29862V2.375H64.5121V14.8391H66.7303ZM70.9429 10.5868C70.9429 12.1362 70.0145 12.997 68.8451 12.997C67.6932 12.997 66.7303 12.119 66.7303 10.5868C66.7303 9.0374 67.6932 8.19386 68.8451 8.19386C70.0145 8.19386 70.9429 9.0374 70.9429 10.5868Z" fill="#2D2D2D"/>
<path d="M74.5249 12.5322C74.5249 13.8578 75.6252 15.0801 77.4308 15.0801C78.6858 15.0801 79.4943 14.4948 79.9239 13.8234C79.9239 14.1505 79.9585 14.6153 80.0099 14.8391H82.1077C82.0564 14.5464 82.0048 13.9439 82.0048 13.4963V9.33012C82.0048 7.62578 81.0073 6.11084 78.3249 6.11084C76.0552 6.11084 74.8344 7.57413 74.6969 8.89974L76.7256 9.33012C76.7946 8.58986 77.3449 7.95289 78.3419 7.95289C79.3051 7.95289 79.7693 8.45213 79.7693 9.05468C79.7693 9.34735 79.6146 9.58838 79.133 9.65723L77.0526 9.96711C75.6426 10.1737 74.5249 11.0172 74.5249 12.5322ZM77.9123 13.3758C77.1729 13.3758 76.8117 12.8937 76.8117 12.3945C76.8117 11.7403 77.2759 11.4132 77.8607 11.3271L79.7693 11.0345V11.4132C79.7693 12.911 78.8752 13.3758 77.9123 13.3758Z" fill="#2D2D2D"/>
<path d="M83.5878 12.4806C83.6907 13.4446 84.5678 15.0973 87.1126 15.0973C89.3308 15.0973 90.3967 13.6857 90.3967 12.3084C90.3967 11.0689 89.5544 10.0532 87.8864 9.70884L86.6826 9.45063C86.2184 9.36456 85.9091 9.10633 85.9091 8.69315C85.9091 8.2111 86.3904 7.8496 86.9922 7.8496C87.9554 7.8496 88.3163 8.48655 88.3854 8.98583L90.2938 8.55544C90.1905 7.64301 89.3824 6.11084 86.9752 6.11084C85.1523 6.11084 83.8114 7.36757 83.8114 8.88251C83.8114 10.0704 84.5504 11.0517 86.1842 11.4132L87.3019 11.6714C87.9554 11.8092 88.2132 12.1191 88.2132 12.4978C88.2132 12.9454 87.8521 13.3414 87.0955 13.3414C86.0981 13.3414 85.5996 12.7216 85.548 12.0502L83.5878 12.4806Z" fill="#2D2D2D"/>
<path d="M93.8701 9.64C93.9217 8.86531 94.5752 7.97008 95.7616 7.97008C97.0683 7.97008 97.6188 8.79645 97.6532 9.64H93.8701ZM97.8768 11.8436C97.6015 12.6011 97.0169 13.1348 95.9508 13.1348C94.8158 13.1348 93.87 12.3256 93.8188 11.2066H99.8713C99.8713 11.1722 99.9055 10.8279 99.9055 10.5008C99.9055 7.78072 98.341 6.11084 95.7272 6.11084C93.5608 6.11084 91.5659 7.8668 91.5659 10.5697C91.5659 13.4274 93.6121 15.0973 95.9336 15.0973C98.0141 15.0973 99.3554 13.875 99.7854 12.4117L97.8768 11.8436Z" fill="#2D2D2D"/>
<path d="M10.9652 19.9715C10.473 20.5913 9.47512 20.2517 9.46326 19.4603L9.28986 7.88525H17.0729C18.4826 7.88525 19.2689 9.5135 18.3923 10.6176L10.9652 19.9715Z" fill="#2D2D2D"/>
<path d="M10.9652 19.9715C10.473 20.5913 9.47512 20.2517 9.46326 19.4603L9.28986 7.88525H17.0729C18.4826 7.88525 19.2689 9.5135 18.3923 10.6176L10.9652 19.9715Z" fill="#2D2D2D"/>
<path d="M7.79986 1.34599C8.29203 0.726128 9.28996 1.06577 9.30182 1.85717L9.37781 13.4323H1.69213C0.282366 13.4323 -0.503887 11.804 0.372748 10.6999L7.79986 1.34599Z" fill="#2D2D2D"/>
</g>
<defs>
<clipPath id="clip0_102_68">
<rect width="100" height="19.4492" fill="white" transform="translate(0 0.989746)"/>
</clipPath>
</defs>
</svg>
