<svg width="31" height="19" viewBox="0 0 31 19" fill="none" xmlns="http://www.w3.org/2000/svg">
<path d="M7.712 18.36C6.32 18.36 5.096 18.08 4.04 17.52C2.984 16.952 2.16 16.156 1.568 15.132C0.976 14.108 0.68 12.904 0.68 11.52V0.743999L3.992 0.719999V11.496C3.992 12.064 4.088 12.58 4.28 13.044C4.472 13.508 4.736 13.908 5.072 14.244C5.416 14.58 5.812 14.84 6.26 15.024C6.716 15.2 7.2 15.288 7.712 15.288C8.24 15.288 8.728 15.196 9.176 15.012C9.632 14.828 10.028 14.568 10.364 14.232C10.7 13.896 10.96 13.496 11.144 13.032C11.336 12.568 11.432 12.056 11.432 11.496V0.719999H14.744V11.52C14.744 12.904 14.448 14.108 13.856 15.132C13.264 16.156 12.44 16.952 11.384 17.52C10.328 18.08 9.104 18.36 7.712 18.36ZM18.0941 18V0.719999H25.0061C26.2381 0.719999 27.2341 0.967999 27.9941 1.464C28.7541 1.952 29.3101 2.568 29.6621 3.312C30.0141 4.056 30.1901 4.808 30.1901 5.568C30.1901 6.536 29.9701 7.34 29.5301 7.98C29.0981 8.62 28.5021 9.048 27.7421 9.264V8.664C28.8221 8.888 29.6301 9.388 30.1661 10.164C30.7101 10.94 30.9821 11.808 30.9821 12.768C30.9821 13.8 30.7901 14.708 30.4061 15.492C30.0301 16.276 29.4541 16.892 28.6781 17.34C27.9021 17.78 26.9261 18 25.7501 18H18.0941ZM21.4061 14.928H25.4141C25.8541 14.928 26.2461 14.836 26.5901 14.652C26.9341 14.46 27.2021 14.196 27.3941 13.86C27.5941 13.516 27.6941 13.112 27.6941 12.648C27.6941 12.24 27.6101 11.876 27.4421 11.556C27.2741 11.236 27.0181 10.984 26.6741 10.8C26.3381 10.608 25.9181 10.512 25.4141 10.512H21.4061V14.928ZM21.4061 7.464H24.9581C25.3261 7.464 25.6541 7.4 25.9421 7.272C26.2301 7.144 26.4581 6.948 26.6261 6.684C26.7941 6.412 26.8781 6.064 26.8781 5.64C26.8781 5.112 26.7141 4.668 26.3861 4.308C26.0581 3.948 25.5821 3.768 24.9581 3.768H21.4061V7.464Z" fill="#2D2D2D"/>
</svg>
