<svg width="54" height="19" viewBox="0 0 54 19" fill="none" xmlns="http://www.w3.org/2000/svg">
<path d="M7.712 18.36C6.32 18.36 5.096 18.08 4.04 17.52C2.984 16.952 2.16 16.156 1.568 15.132C0.976 14.108 0.68 12.904 0.68 11.52V0.743999L3.992 0.719999V11.496C3.992 12.064 4.088 12.58 4.28 13.044C4.472 13.508 4.736 13.908 5.072 14.244C5.416 14.58 5.812 14.84 6.26 15.024C6.716 15.2 7.2 15.288 7.712 15.288C8.24 15.288 8.728 15.196 9.176 15.012C9.632 14.828 10.028 14.568 10.364 14.232C10.7 13.896 10.96 13.496 11.144 13.032C11.336 12.568 11.432 12.056 11.432 11.496V0.719999H14.744V11.52C14.744 12.904 14.448 14.108 13.856 15.132C13.264 16.156 12.44 16.952 11.384 17.52C10.328 18.08 9.104 18.36 7.712 18.36ZM25.2941 18.36C24.2061 18.36 23.1701 18.168 22.1861 17.784C21.2021 17.392 20.3301 16.816 19.5701 16.056C18.8181 15.296 18.2221 14.356 17.7821 13.236C17.3501 12.116 17.1341 10.824 17.1341 9.36C17.1341 7.448 17.4981 5.824 18.2261 4.488C18.9621 3.144 19.9461 2.12 21.1781 1.416C22.4181 0.711999 23.7901 0.36 25.2941 0.36C27.5181 0.36 29.2661 0.875999 30.5381 1.908C31.8101 2.94 32.6621 4.4 33.0941 6.288L29.7581 6.768C29.4461 5.76 28.9341 4.956 28.2221 4.356C27.5181 3.748 26.6141 3.44 25.5101 3.432C24.4141 3.416 23.5021 3.652 22.7741 4.14C22.0461 4.628 21.4981 5.32 21.1301 6.216C20.7701 7.112 20.5901 8.16 20.5901 9.36C20.5901 10.56 20.7701 11.6 21.1301 12.48C21.4981 13.36 22.0461 14.044 22.7741 14.532C23.5021 15.02 24.4141 15.272 25.5101 15.288C26.2541 15.304 26.9261 15.176 27.5261 14.904C28.1341 14.632 28.6461 14.204 29.0621 13.62C29.4781 13.036 29.7741 12.288 29.9501 11.376H27.2141V8.856H33.4301C33.4461 8.96 33.4581 9.144 33.4661 9.408C33.4741 9.672 33.4781 9.824 33.4781 9.864C33.4781 11.52 33.1421 12.988 32.4701 14.268C31.7981 15.548 30.8501 16.552 29.6261 17.28C28.4021 18 26.9581 18.36 25.2941 18.36ZM35.8831 18V0.719999H38.8111L44.5231 12.192L50.2351 0.719999H53.1631V18H50.1151V7.68L45.0991 18H43.9471L38.9311 7.68V18H35.8831Z" fill="#2D2D2D"/>
</svg>
