<svg width="73" height="19" viewBox="0 0 73 19" fill="none" xmlns="http://www.w3.org/2000/svg">
<path d="M7.712 18.36C6.32 18.36 5.096 18.08 4.04 17.52C2.984 16.952 2.16 16.156 1.568 15.132C0.976 14.108 0.68 12.904 0.68 11.52V0.743999L3.992 0.719999V11.496C3.992 12.064 4.088 12.58 4.28 13.044C4.472 13.508 4.736 13.908 5.072 14.244C5.416 14.58 5.812 14.84 6.26 15.024C6.716 15.2 7.2 15.288 7.712 15.288C8.24 15.288 8.728 15.196 9.176 15.012C9.632 14.828 10.028 14.568 10.364 14.232C10.7 13.896 10.96 13.496 11.144 13.032C11.336 12.568 11.432 12.056 11.432 11.496V0.719999H14.744V11.52C14.744 12.904 14.448 14.108 13.856 15.132C13.264 16.156 12.44 16.952 11.384 17.52C10.328 18.08 9.104 18.36 7.712 18.36ZM18.0941 18V0.719999H21.4061L28.9181 12.24V0.719999H32.2301V18H28.9181L21.4061 6.48V18H18.0941ZM34.3784 18L39.6584 0.719999H44.5304L49.8104 18H46.4504L41.7464 2.76H42.3704L37.7384 18H34.3784ZM37.5464 14.4V11.352H46.6664V14.4H37.5464ZM52.2013 18V0.719999H55.4653V18H52.2013ZM59.0628 18V0.719999H66.3588C66.5268 0.719999 66.7508 0.727999 67.0308 0.743999C67.3188 0.751999 67.5748 0.776 67.7988 0.816C68.8308 0.975999 69.6748 1.316 70.3308 1.836C70.9948 2.356 71.4828 3.012 71.7948 3.804C72.1068 4.588 72.2628 5.464 72.2628 6.432C72.2628 7.88 71.9028 9.12 71.1828 10.152C70.4628 11.176 69.3348 11.808 67.7988 12.048L66.3588 12.144H62.3268V18H59.0628ZM68.8068 18L65.3988 10.968L68.7588 10.32L72.5028 18H68.8068ZM62.3268 9.096H66.2148C66.3828 9.096 66.5668 9.088 66.7668 9.072C66.9668 9.056 67.1508 9.024 67.3188 8.976C67.7588 8.856 68.0988 8.656 68.3388 8.376C68.5788 8.088 68.7428 7.772 68.8308 7.428C68.9268 7.076 68.9748 6.744 68.9748 6.432C68.9748 6.12 68.9268 5.792 68.8308 5.448C68.7428 5.096 68.5788 4.78 68.3388 4.5C68.0988 4.212 67.7588 4.008 67.3188 3.888C67.1508 3.84 66.9668 3.808 66.7668 3.792C66.5668 3.776 66.3828 3.768 66.2148 3.768H62.3268V9.096Z" fill="#2D2D2D"/>
</svg>
