<svg width="83" height="19" viewBox="0 0 83 19" fill="none" xmlns="http://www.w3.org/2000/svg">
<path d="M7.712 18.36C6.32 18.36 5.096 18.08 4.04 17.52C2.984 16.952 2.16 16.156 1.568 15.132C0.976 14.108 0.68 12.904 0.68 11.52V0.743999L3.992 0.719999V11.496C3.992 12.064 4.088 12.58 4.28 13.044C4.472 13.508 4.736 13.908 5.072 14.244C5.416 14.58 5.812 14.84 6.26 15.024C6.716 15.2 7.2 15.288 7.712 15.288C8.24 15.288 8.728 15.196 9.176 15.012C9.632 14.828 10.028 14.568 10.364 14.232C10.7 13.896 10.96 13.496 11.144 13.032C11.336 12.568 11.432 12.056 11.432 11.496V0.719999H14.744V11.52C14.744 12.904 14.448 14.108 13.856 15.132C13.264 16.156 12.44 16.952 11.384 17.52C10.328 18.08 9.104 18.36 7.712 18.36ZM18.0941 18V0.719999H21.4061L28.9181 12.24V0.719999H32.2301V18H28.9181L21.4061 6.48V18H18.0941ZM35.5784 18V0.719999H38.8424V7.824H46.5704V0.719999H49.8344V18H46.5704V10.872H38.8424V18H35.5784ZM52.0034 18L57.2834 0.719999H62.1554L67.4354 18H64.0754L59.3714 2.76H59.9954L55.3634 18H52.0034ZM55.1714 14.4V11.352H64.2914V14.4H55.1714ZM75.6455 18.36C74.3655 18.36 73.2095 18.136 72.1775 17.688C71.1535 17.232 70.3095 16.584 69.6455 15.744C68.9895 14.896 68.5735 13.888 68.3975 12.72L71.8055 12.216C72.0455 13.208 72.5415 13.972 73.2935 14.508C74.0455 15.044 74.9015 15.312 75.8615 15.312C76.3975 15.312 76.9175 15.228 77.4215 15.06C77.9255 14.892 78.3375 14.644 78.6575 14.316C78.9855 13.988 79.1495 13.584 79.1495 13.104C79.1495 12.928 79.1215 12.76 79.0655 12.6C79.0175 12.432 78.9335 12.276 78.8135 12.132C78.6935 11.988 78.5215 11.852 78.2975 11.724C78.0815 11.596 77.8055 11.48 77.4695 11.376L72.9815 10.056C72.6455 9.96 72.2535 9.824 71.8055 9.648C71.3655 9.472 70.9375 9.22 70.5215 8.892C70.1055 8.564 69.7575 8.132 69.4775 7.596C69.2055 7.052 69.0695 6.368 69.0695 5.544C69.0695 4.384 69.3615 3.42 69.9455 2.652C70.5295 1.884 71.3095 1.312 72.2855 0.935999C73.2615 0.559999 74.3415 0.375999 75.5255 0.383999C76.7175 0.399999 77.7815 0.603999 78.7175 0.995999C79.6535 1.388 80.4375 1.96 81.0695 2.712C81.7015 3.456 82.1575 4.368 82.4375 5.448L78.9095 6.048C78.7815 5.488 78.5455 5.016 78.2015 4.632C77.8575 4.248 77.4455 3.956 76.9655 3.756C76.4935 3.556 75.9975 3.448 75.4775 3.432C74.9655 3.416 74.4815 3.488 74.0255 3.648C73.5775 3.8 73.2095 4.024 72.9215 4.32C72.6415 4.616 72.5015 4.968 72.5015 5.376C72.5015 5.752 72.6175 6.06 72.8495 6.3C73.0815 6.532 73.3735 6.72 73.7255 6.864C74.0775 7.008 74.4375 7.128 74.8055 7.224L77.8055 8.04C78.2535 8.16 78.7495 8.32 79.2935 8.52C79.8375 8.712 80.3575 8.984 80.8535 9.336C81.3575 9.68 81.7695 10.136 82.0895 10.704C82.4175 11.272 82.5815 11.992 82.5815 12.864C82.5815 13.792 82.3855 14.604 81.9935 15.3C81.6095 15.988 81.0895 16.56 80.4335 17.016C79.7775 17.464 79.0335 17.8 78.2015 18.024C77.3775 18.248 76.5255 18.36 75.6455 18.36Z" fill="#2D2D2D"/>
</svg>
