<svg width="53" height="19" viewBox="0 0 53 19" fill="none" xmlns="http://www.w3.org/2000/svg">
<path d="M7.712 18.36C6.32 18.36 5.096 18.08 4.04 17.52C2.984 16.952 2.16 16.156 1.568 15.132C0.976 14.108 0.68 12.904 0.68 11.52V0.743999L3.992 0.719999V11.496C3.992 12.064 4.088 12.58 4.28 13.044C4.472 13.508 4.736 13.908 5.072 14.244C5.416 14.58 5.812 14.84 6.26 15.024C6.716 15.2 7.2 15.288 7.712 15.288C8.24 15.288 8.728 15.196 9.176 15.012C9.632 14.828 10.028 14.568 10.364 14.232C10.7 13.896 10.96 13.496 11.144 13.032C11.336 12.568 11.432 12.056 11.432 11.496V0.719999H14.744V11.52C14.744 12.904 14.448 14.108 13.856 15.132C13.264 16.156 12.44 16.952 11.384 17.52C10.328 18.08 9.104 18.36 7.712 18.36ZM18.0941 18V0.719999H21.4061L28.9181 12.24V0.719999H32.2301V18H28.9181L21.4061 6.48V18H18.0941ZM35.5784 18V0.719999H38.5064L44.2184 12.192L49.9304 0.719999H52.8584V18H49.8104V7.68L44.7944 18H43.6424L38.6264 7.68V18H35.5784Z" fill="#2D2D2D"/>
</svg>
