<svg width="81" height="19" viewBox="0 0 81 19" fill="none" xmlns="http://www.w3.org/2000/svg">
<path d="M7.712 18.36C6.32 18.36 5.096 18.08 4.04 17.52C2.984 16.952 2.16 16.156 1.568 15.132C0.976 14.108 0.68 12.904 0.68 11.52V0.743999L3.992 0.719999V11.496C3.992 12.064 4.088 12.58 4.28 13.044C4.472 13.508 4.736 13.908 5.072 14.244C5.416 14.58 5.812 14.84 6.26 15.024C6.716 15.2 7.2 15.288 7.712 15.288C8.24 15.288 8.728 15.196 9.176 15.012C9.632 14.828 10.028 14.568 10.364 14.232C10.7 13.896 10.96 13.496 11.144 13.032C11.336 12.568 11.432 12.056 11.432 11.496V0.719999H14.744V11.52C14.744 12.904 14.448 14.108 13.856 15.132C13.264 16.156 12.44 16.952 11.384 17.52C10.328 18.08 9.104 18.36 7.712 18.36ZM18.0941 18V0.719999H21.4061L28.9181 12.24V0.719999H32.2301V18H28.9181L21.4061 6.48V18H18.0941ZM39.5864 18V3.768H34.1384V0.719999H48.2984V3.768H42.8504V18H39.5864ZM48.5581 18L53.8381 0.719999H58.7101L63.9901 18H60.6301L55.9261 2.76H56.5501L51.9181 18H48.5581ZM51.7261 14.4V11.352H60.8461V14.4H51.7261ZM66.1409 18V0.719999H71.7329C71.8689 0.719999 72.1489 0.724 72.5729 0.732C72.9969 0.739999 73.4049 0.767999 73.7969 0.816C75.1889 0.984 76.3689 1.468 77.3369 2.268C78.3049 3.068 79.0409 4.084 79.5449 5.316C80.0489 6.548 80.3009 7.896 80.3009 9.36C80.3009 10.824 80.0489 12.172 79.5449 13.404C79.0409 14.636 78.3049 15.652 77.3369 16.452C76.3689 17.252 75.1889 17.736 73.7969 17.904C73.4049 17.952 72.9969 17.98 72.5729 17.988C72.1489 17.996 71.8689 18 71.7329 18H66.1409ZM69.4529 14.928H71.7329C71.9489 14.928 72.2409 14.924 72.6089 14.916C72.9769 14.9 73.3089 14.864 73.6049 14.808C74.3569 14.656 74.9689 14.304 75.4409 13.752C75.9209 13.2 76.2729 12.536 76.4969 11.76C76.7289 10.984 76.8449 10.184 76.8449 9.36C76.8449 8.496 76.7249 7.676 76.4849 6.9C76.2529 6.124 75.8969 5.468 75.4169 4.932C74.9369 4.396 74.3329 4.056 73.6049 3.912C73.3089 3.848 72.9769 3.812 72.6089 3.804C72.2409 3.796 71.9489 3.792 71.7329 3.792H69.4529V14.928Z" fill="#2D2D2D"/>
</svg>
