<svg width="38" height="19" viewBox="0 0 38 19" fill="none" xmlns="http://www.w3.org/2000/svg">
<path d="M7.712 18.36C6.32 18.36 5.096 18.08 4.04 17.52C2.984 16.952 2.16 16.156 1.568 15.132C0.976 14.108 0.68 12.904 0.68 11.52V0.743999L3.992 0.719999V11.496C3.992 12.064 4.088 12.58 4.28 13.044C4.472 13.508 4.736 13.908 5.072 14.244C5.416 14.58 5.812 14.84 6.26 15.024C6.716 15.2 7.2 15.288 7.712 15.288C8.24 15.288 8.728 15.196 9.176 15.012C9.632 14.828 10.028 14.568 10.364 14.232C10.7 13.896 10.96 13.496 11.144 13.032C11.336 12.568 11.432 12.056 11.432 11.496V0.719999H14.744V11.52C14.744 12.904 14.448 14.108 13.856 15.132C13.264 16.156 12.44 16.952 11.384 17.52C10.328 18.08 9.104 18.36 7.712 18.36ZM18.0941 18V0.719999H25.3901C25.5581 0.719999 25.7821 0.727999 26.0621 0.743999C26.3501 0.751999 26.6061 0.776 26.8301 0.816C27.8621 0.975999 28.7061 1.316 29.3621 1.836C30.0261 2.356 30.5141 3.012 30.8261 3.804C31.1381 4.588 31.2941 5.464 31.2941 6.432C31.2941 7.4 31.1341 8.28 30.8141 9.072C30.5021 9.856 30.0141 10.508 29.3501 11.028C28.6941 11.548 27.8541 11.888 26.8301 12.048C26.6061 12.08 26.3501 12.104 26.0621 12.12C25.7741 12.136 25.5501 12.144 25.3901 12.144H21.3581V18H18.0941ZM21.3581 9.096H25.2461C25.4141 9.096 25.5981 9.088 25.7981 9.072C25.9981 9.056 26.1821 9.024 26.3501 8.976C26.7901 8.856 27.1301 8.656 27.3701 8.376C27.6101 8.088 27.7741 7.772 27.8621 7.428C27.9581 7.076 28.0061 6.744 28.0061 6.432C28.0061 6.12 27.9581 5.792 27.8621 5.448C27.7741 5.096 27.6101 4.78 27.3701 4.5C27.1301 4.212 26.7901 4.008 26.3501 3.888C26.1821 3.84 25.9981 3.808 25.7981 3.792C25.5981 3.776 25.4141 3.768 25.2461 3.768H21.3581V9.096ZM33.9434 18V0.719999H37.2074V18H33.9434Z" fill="#2D2D2D"/>
</svg>
